<svg width="592" height="537" viewBox="0 0 592 537" fill="none" xmlns="http://www.w3.org/2000/svg">
<g id="barbecue 1">
<path id="Vector" d="M293.223 537C455.165 537 586.445 528.388 586.445 517.765C586.445 507.142 455.165 498.53 293.223 498.53C131.28 498.53 0 507.142 0 517.765C0 528.388 131.28 537 293.223 537Z" fill="#3F3D56"/>
<path id="Vector_2" d="M298.137 307.781H288.308V313.391H298.137V307.781Z" fill="#3F3D56"/>
<path id="Vector_3" d="M317.794 307.781H307.966V313.391H317.794V307.781Z" fill="#3F3D56"/>
<path id="Vector_4" d="M337.452 307.781H327.623V313.391H337.452V307.781Z" fill="#3F3D56"/>
<path id="Vector_5" d="M357.109 307.781H347.28V313.391H357.109V307.781Z" fill="#3F3D56"/>
<path id="Vector_6" d="M376.766 307.781H366.938V313.391H376.766V307.781Z" fill="#3F3D56"/>
<path id="Vector_7" d="M396.424 307.781H386.595V313.391H396.424V307.781Z" fill="#3F3D56"/>
<path id="Vector_8" d="M416.081 307.781H406.252V313.391H416.081V307.781Z" fill="#3F3D56"/>
<path id="Vector_9" d="M435.738 307.781H425.91V313.391H435.738V307.781Z" fill="#3F3D56"/>
<path id="Vector_10" d="M455.396 307.781H445.567V313.391H455.396V307.781Z" fill="#3F3D56"/>
<path id="Vector_11" d="M475.053 307.781H465.225V313.391H475.053V307.781Z" fill="#3F3D56"/>
<path id="Vector_12" d="M494.711 307.781H484.882V313.391H494.711V307.781Z" fill="#3F3D56"/>
<path id="Vector_13" d="M517.235 311.388C517.235 341.997 504.808 371.352 482.69 392.996C460.571 414.639 430.571 426.799 399.29 426.799C368.01 426.799 338.01 414.639 315.891 392.996C293.772 371.352 281.346 341.997 281.346 311.388H517.235Z" fill="#3F3D56"/>
<path id="Vector_14" d="M511.534 312.125L436.508 93.2931C451.192 88.4621 466.705 86.5109 482.16 87.5512C497.614 88.5915 512.708 92.6028 526.577 99.3557C540.446 106.109 552.819 115.471 562.988 126.906C573.157 138.342 580.922 151.627 585.839 166.002C586.633 168.318 587.354 170.65 587.993 172.983C595.716 201.341 592.108 231.512 577.905 257.36C563.701 283.208 539.968 302.791 511.534 312.125Z" fill="#3F3D56"/>
<path id="Vector_15" d="M514.368 329.421C522.51 329.421 529.111 322.962 529.111 314.994C529.111 307.027 522.51 300.568 514.368 300.568C506.226 300.568 499.625 307.027 499.625 314.994C499.625 322.962 506.226 329.421 514.368 329.421Z" fill="#3F3D56"/>
<path id="Vector_16" d="M364.481 341.443C363.395 341.443 362.353 341.865 361.585 342.616C360.817 343.368 360.386 344.387 360.386 345.45C360.386 346.513 360.817 347.532 361.585 348.284C362.353 349.035 363.395 349.457 364.481 349.457H434.92C436.006 349.457 437.048 349.035 437.816 348.284C438.584 347.532 439.015 346.513 439.015 345.45C439.015 344.387 438.584 343.368 437.816 342.616C437.048 341.865 436.006 341.443 434.92 341.443H364.481Z" fill="#6C63FF"/>
<path id="Vector_17" d="M497.168 520.169L482.502 520.7L429.664 409.508L443.033 403.426L497.168 520.169Z" fill="#3F3D56"/>
<path id="Vector_18" d="M301.413 520.169L316.079 520.7L368.916 409.508L355.548 403.426L301.413 520.169Z" fill="#3F3D56"/>
<path id="Vector_19" d="M460.31 456.052H339.09V464.067H460.31V456.052Z" fill="#3F3D56"/>
<path id="Vector_20" d="M439.507 89.2075C438.931 89.2078 438.363 89.3401 437.849 89.5939C437.335 89.8477 436.888 90.2158 436.546 90.6689C436.203 91.1219 435.974 91.6472 435.876 92.2026C435.778 92.7581 435.815 93.3282 435.983 93.8672L439.09 103.833C439.376 104.747 440.022 105.512 440.884 105.961C441.747 106.41 442.756 106.506 443.691 106.227C444.625 105.948 445.408 105.317 445.868 104.474C446.327 103.63 446.426 102.642 446.142 101.728L443.034 91.7622C442.803 91.0233 442.335 90.3765 441.7 89.9167C441.066 89.4569 440.297 89.2084 439.507 89.2075Z" fill="#6C63FF"/>
<path id="Vector_21" d="M276.432 313.391C275.454 313.391 274.517 313.771 273.826 314.448C273.134 315.124 272.746 316.041 272.746 316.998C272.746 317.955 273.134 318.872 273.826 319.548C274.517 320.225 275.454 320.605 276.432 320.605H287.08C288.057 320.605 288.995 320.225 289.686 319.548C290.377 318.872 290.765 317.955 290.765 316.998C290.765 316.041 290.377 315.124 289.686 314.448C288.995 313.771 288.057 313.391 287.08 313.391H276.432Z" fill="#6C63FF"/>
<path id="Vector_22" d="M364.48 286.943H320.251C319.973 286.943 319.703 286.951 319.432 286.975C316.543 287.177 313.838 288.442 311.863 290.515C309.888 292.589 308.788 295.318 308.785 298.152C308.781 300.987 309.875 303.718 311.846 305.796C313.817 307.873 316.519 309.144 319.408 309.352C319.686 309.376 319.965 309.384 320.251 309.384H364.48C367.522 309.384 370.438 308.202 372.589 306.098C374.739 303.993 375.947 301.139 375.947 298.163C375.947 295.188 374.739 292.334 372.589 290.229C370.438 288.125 367.522 286.943 364.48 286.943V286.943Z" fill="#FF6584"/>
<path id="Vector_23" opacity="0.2" d="M315.796 308.494C323.331 307.549 329.261 298.244 329.261 286.943H327.623C327.623 297.995 321.742 306.98 314.518 306.98V307.877L315.796 308.494Z" fill="black"/>
<path id="Vector_24" opacity="0.2" d="M331.718 308.583V306.98C338.944 306.98 344.823 297.991 344.823 286.943H346.461C346.461 298.875 339.848 308.583 331.718 308.583Z" fill="black"/>
<path id="Vector_25" opacity="0.2" d="M348.918 308.583V306.98C356.144 306.98 362.023 297.991 362.023 286.943H363.661C363.661 298.875 357.048 308.583 348.918 308.583Z" fill="black"/>
<path id="Vector_26" d="M444.748 286.943H400.519C400.241 286.943 399.97 286.951 399.7 286.975C396.81 287.177 394.106 288.442 392.13 290.515C390.155 292.589 389.055 295.318 389.052 298.152C389.049 300.987 390.143 303.718 392.114 305.796C394.084 307.873 396.786 309.144 399.675 309.352C399.954 309.376 400.232 309.384 400.519 309.384H444.748C447.789 309.384 450.706 308.202 452.856 306.098C455.007 303.993 456.215 301.139 456.215 298.163C456.215 295.188 455.007 292.334 452.856 290.229C450.706 288.125 447.789 286.943 444.748 286.943V286.943Z" fill="#FF6584"/>
<path id="Vector_27" opacity="0.2" d="M396.063 308.494C403.599 307.549 409.529 298.244 409.529 286.943H407.891C407.891 297.995 402.01 306.98 394.786 306.98V307.877L396.063 308.494Z" fill="black"/>
<path id="Vector_28" opacity="0.2" d="M411.986 308.583V306.98C419.212 306.98 425.091 297.991 425.091 286.943H426.729C426.729 298.875 420.115 308.583 411.986 308.583Z" fill="black"/>
<path id="Vector_29" opacity="0.2" d="M429.186 308.583V306.98C436.412 306.98 442.291 297.991 442.291 286.943H443.929C443.929 298.875 437.315 308.583 429.186 308.583Z" fill="black"/>
<g id="barbec">
<path id="Vector_30" d="M361.244 179.191C355.447 176.127 348.281 179.469 345.392 184.893C341.879 191.491 344.791 199.422 348.888 205.061C353.146 210.921 358.924 215.758 361.766 222.53C364.484 228.903 364.807 236.012 362.676 242.596C360.544 249.179 356.097 254.81 350.125 258.489C347.459 260.139 349.922 264.302 352.605 262.641C358.463 259.06 363.097 253.853 365.917 247.683C368.736 241.513 369.612 234.661 368.434 228.001C367.835 224.547 366.695 221.205 365.052 218.093C363.271 214.917 361.126 211.949 358.657 209.249C354.394 204.311 349.027 198.868 348.759 191.999C348.71 191.108 348.774 190.214 348.948 189.338C349.076 188.726 349.266 188.128 349.515 187.554C350.111 186.319 350.996 185.24 352.097 184.402C353.118 183.605 354.326 183.07 355.612 182.844C356.69 182.688 357.791 182.862 358.763 183.344C361.546 184.815 364.03 180.664 361.244 179.191V179.191Z" fill="#E6E6E6"/>
<path id="Vector_31" d="M435.191 208.28C432.723 207.503 430.086 207.397 427.56 207.971C425.035 208.545 422.716 209.779 420.851 211.541C419.887 212.511 419.173 213.692 418.768 214.986C418.363 216.28 418.278 217.65 418.522 218.982C418.99 221.896 420.87 224.484 422.91 226.57C426.902 230.651 432.488 233.29 435.834 237.975C437.318 239.972 438.25 242.31 438.537 244.762C438.71 246.966 438.297 249.176 437.339 251.177C434.842 256.143 429.886 259.521 424.659 261.695C423.437 262.203 423.168 263.965 423.777 264.985C424.118 265.523 424.657 265.912 425.282 266.073C425.908 266.233 426.573 266.152 427.139 265.847C436.758 261.846 445.658 252.884 443.004 241.874C441.609 236.082 437.332 231.994 432.725 228.44C430.438 226.799 428.277 224.995 426.261 223.042C424.668 221.387 423.014 219.127 423.306 216.883C423.423 216.103 423.814 215.387 424.41 214.857C425.134 214.21 425.955 213.676 426.845 213.274C427.936 212.762 429.12 212.467 430.328 212.406C431.536 212.344 432.745 212.518 433.884 212.917C434.513 213.08 435.181 212.996 435.747 212.682C436.312 212.368 436.729 211.849 436.907 211.237C437.067 210.623 436.978 209.972 436.658 209.42C436.338 208.869 435.812 208.46 435.191 208.28V208.28Z" fill="#E6E6E6"/>
<path id="Vector_32" d="M397.779 139.875C396.315 138.651 394.467 137.954 392.541 137.901C390.715 137.935 388.941 138.496 387.44 139.515C384.052 141.924 381.654 145.439 380.681 149.425C378.198 158.733 381.437 168.765 385.937 176.962C388.213 181.106 390.863 185.04 393.153 189.175C395.361 193.131 397.057 197.34 398.2 201.707C400.531 210.659 400.739 220.015 398.808 229.059C396.841 238.06 392.704 246.974 385.666 253.184C385.205 253.635 384.946 254.247 384.946 254.884C384.946 255.522 385.205 256.134 385.666 256.585C386.127 257.035 386.752 257.289 387.403 257.289C388.055 257.289 388.68 257.035 389.141 256.585C395.388 251.072 399.566 243.511 402.088 235.735C404.87 226.953 405.684 217.687 404.474 208.57C403.926 204.029 402.87 199.562 401.323 195.247C399.647 190.902 397.554 186.721 395.072 182.761C390.453 175.12 385.536 167.391 384.868 158.291C384.539 153.817 385.111 149.153 387.94 145.554C387.785 145.751 388.064 145.411 388.065 145.41C388.236 145.209 388.414 145.013 388.598 144.823C388.949 144.454 389.327 144.111 389.727 143.794C389.642 143.861 389.425 144.003 389.821 143.734C390.018 143.601 390.218 143.472 390.425 143.354C390.593 143.257 390.766 143.171 390.938 143.082C391.04 143.031 391.143 142.983 391.248 142.938C391.009 143.039 391.023 143.04 391.289 142.941C391.481 142.882 392.433 142.681 391.905 142.746C392.081 142.725 392.258 142.714 392.435 142.712C392.511 142.711 393.173 142.744 392.85 142.709C392.471 142.669 393.149 142.775 393.154 142.776C393.366 142.827 393.574 142.892 393.778 142.97C393.266 142.77 394.616 143.512 394.305 143.275C394.775 143.708 395.397 143.948 396.042 143.948C396.688 143.948 397.309 143.708 397.779 143.275C398.627 142.446 398.833 140.677 397.779 139.875L397.779 139.875Z" fill="#E6E6E6"/>
</g>
<path id="Vector_33" d="M209.095 501.237L190.57 506.046L156.544 352.148L194.729 348.818L209.095 501.237Z" fill="#FFB9B9"/>
<path id="Vector_34" d="M124.336 503.602L105.385 506.404L88.7293 349.79L127.057 350.559L124.336 503.602Z" fill="#FFB9B9"/>
<path id="Vector_35" d="M114.579 280.747L116.329 312.711C116.393 313.887 116.198 315.062 115.757 316.158C115.316 317.253 114.639 318.243 113.773 319.06C112.907 319.877 111.871 320.501 110.736 320.892C109.601 321.282 108.393 321.429 107.195 321.323V321.323C105.236 321.149 103.403 320.306 102.014 318.944C100.626 317.581 99.7712 315.784 99.5993 313.867L96.4313 278.528L71.4787 195.659L72.2349 142.387L101.724 143.866L114.579 280.747Z" fill="#FFB9B9"/>
<path id="Vector_36" d="M130.458 359.176C115.686 354.158 98.547 353.171 79.0402 356.217C81.8066 324.15 83.4088 294.373 82.0647 270.389H182.631L130.458 359.176Z" fill="#2F2E41"/>
<path id="Vector_37" d="M200.778 358.436C185.554 366.317 163.531 370.09 138.019 371.755L106.261 272.608L184.143 271.129L200.778 358.436Z" fill="#2F2E41"/>
<path id="Vector_38" d="M239.982 517.325L185.195 519.31C178.177 519.565 177.807 513.667 179.132 506.919L185.618 488.796C200.221 502.795 201.597 503.578 207.857 483.663L226.962 498.429L241.105 500.802C243.085 501.134 244.881 502.141 246.175 503.645C247.469 505.15 248.178 507.053 248.174 509.02V509.02C248.171 511.172 247.316 513.239 245.788 514.788C244.261 516.336 242.18 517.246 239.982 517.325V517.325Z" fill="#2F2E41"/>
<path id="Vector_39" d="M157.004 517.325L102.217 519.31C95.1989 519.565 94.8288 513.667 96.1536 506.919L102.64 488.796C117.243 502.795 118.619 503.578 124.879 483.663L143.984 498.429L158.126 500.802C160.107 501.134 161.903 502.141 163.197 503.645C164.491 505.15 165.199 507.053 165.196 509.02V509.02C165.193 511.172 164.338 513.239 162.81 514.788C161.283 516.336 159.202 517.246 157.004 517.325Z" fill="#2F2E41"/>
<path id="Vector_40" d="M169.777 63.9575C186.063 63.9575 199.266 51.0383 199.266 35.1016C199.266 19.1648 186.063 6.24557 169.777 6.24557C153.49 6.24557 140.287 19.1648 140.287 35.1016C140.287 51.0383 153.49 63.9575 169.777 63.9575Z" fill="#FFB9B9"/>
<path id="Vector_41" d="M154.654 86.1543L119.871 75.7961L143.312 41.7603L169.777 52.859L154.654 86.1543Z" fill="#FFB9B9"/>
<path id="Vector_42" d="M187.168 279.267C151.412 287.134 111.72 284.013 77.5279 274.828C85.7159 230.15 81.7628 182.16 73.7472 143.126C67.4732 112.574 84.0237 86.9361 111.554 74.3161C117.472 72.2396 123.628 70.8831 129.884 70.2773C149.195 68.603 166.188 82.7722 168.202 101.641L187.168 279.267Z" fill="#6C63FF"/>
<path id="Vector_43" d="M94.1629 157.925L69.2103 154.965L76.7719 116.491H94.1629V157.925Z" fill="#6C63FF"/>
<path id="Vector_44" d="M169.364 39.6708L164.847 37.7062C163.823 37.2624 162.713 37.0417 161.594 37.0594C160.474 37.0771 159.372 37.3328 158.364 37.8088C157.355 38.2848 156.465 38.9696 155.754 39.8159C155.043 40.6621 154.528 41.6496 154.246 42.7097V42.7097L147.95 53.8409L132.269 51.4122L132.817 27.8485C133.531 23.3957 135.171 19.1336 137.636 15.3261C140.102 11.5186 143.339 8.24664 147.149 5.71283C150.958 3.17902 155.259 1.43724 159.784 0.595299C164.309 -0.246646 168.963 -0.170837 173.457 0.818033L173.885 0.91278C181.54 2.60735 191.478 8.10716 196.666 13.8805L206.332 24.6374C206.791 25.1478 207.097 25.7713 207.219 26.4402C207.34 27.109 207.272 27.7977 207.022 28.4314C206.771 29.0651 206.348 29.6194 205.798 30.0342C205.248 30.4491 204.593 30.7084 203.903 30.7842L190.683 32.2116L169.364 39.6708Z" fill="#2F2E41"/>
<path id="Vector_45" d="M267.177 236.462L250.244 250.995C249.999 251.205 249.679 251.311 249.354 251.29C249.029 251.27 248.726 251.123 248.511 250.884C248.297 250.644 248.188 250.331 248.209 250.013C248.23 249.695 248.379 249.398 248.624 249.188L265.557 234.654L262.316 231.039L245.383 245.573C245.138 245.783 244.818 245.889 244.493 245.868C244.168 245.847 243.865 245.7 243.65 245.461C243.436 245.221 243.327 244.908 243.348 244.59C243.369 244.272 243.518 243.975 243.763 243.765L260.696 229.231L257.456 225.616L240.522 240.15C240.401 240.254 240.26 240.334 240.107 240.385C239.954 240.436 239.793 240.457 239.632 240.447C239.471 240.436 239.313 240.395 239.168 240.325C239.024 240.256 238.894 240.158 238.788 240.04C238.681 239.921 238.6 239.783 238.548 239.633C238.496 239.484 238.475 239.325 238.485 239.168C238.496 239.01 238.538 238.856 238.61 238.715C238.681 238.573 238.781 238.446 238.902 238.342L255.835 223.809L251.785 219.29L227.855 239.828C225.719 241.662 224.292 244.159 223.812 246.9C223.332 249.64 223.828 252.459 225.218 254.885L152.972 316.893L159.454 324.123L231.653 262.155C233.855 263.856 236.597 264.749 239.402 264.679C242.206 264.608 244.898 263.579 247.008 261.769L271.228 240.981L267.177 236.462Z" fill="#E6E6E6"/>
<path id="Vector_46" d="M184.899 280.747L186.649 312.711C186.714 313.887 186.519 315.062 186.078 316.158C185.637 317.253 184.96 318.243 184.094 319.06C183.227 319.877 182.191 320.501 181.056 320.892C179.921 321.282 178.714 321.429 177.515 321.323V321.323C175.557 321.149 173.723 320.306 172.335 318.944C170.947 317.581 170.092 315.784 169.92 313.867L166.752 278.528L141.8 195.659L142.556 142.387L172.045 143.866L184.899 280.747Z" fill="#FFB9B9"/>
<path id="Vector_47" d="M174.313 152.005C165.341 143.583 153.497 143.274 140.287 146.826V107.062C140.287 102.302 142.22 97.7369 145.66 94.371C149.099 91.005 153.765 89.114 158.63 89.114V89.114C160.869 89.114 163.085 89.552 165.148 90.4023C167.212 91.2527 169.081 92.4981 170.645 94.0654C172.21 95.6327 173.438 97.4902 174.258 99.5288C175.079 101.567 175.474 103.746 175.421 105.936L174.313 152.005Z" fill="#6C63FF"/>
</g>
</svg>
