<svg width="1098" height="792" viewBox="0 0 1098 792" fill="none" xmlns="http://www.w3.org/2000/svg">
<g id="fatherhood 1">
<g id="Group">
<path id="Vector" opacity="0.1" d="M11.8595 430.97C29.2195 505.17 65.9695 569.31 124.039 600.44C244.749 665.05 516.96 631.72 720.109 593.44C822.765 574.161 915.947 520.896 984.65 442.22L11.8595 430.97Z" fill="#6C63FF"/>
<path id="Vector 2" opacity="0.1" d="M1077.21 81.71H965.74C963.186 81.71 960.737 80.6954 958.931 78.8894C957.125 77.0835 956.109 74.634 956.109 72.08C956.109 69.526 957.125 67.0765 958.931 65.2706C960.737 63.4646 963.186 62.45 965.74 62.45H985.01C982.508 62.3694 980.136 61.319 978.395 59.5209C976.654 57.7228 975.681 55.3179 975.681 52.815C975.681 50.3121 976.654 47.9073 978.395 46.1092C980.136 44.311 982.508 43.2606 985.01 43.18H971.25C968.748 43.0994 966.376 42.049 964.635 40.2509C962.894 38.4528 961.919 36.048 961.919 33.545C961.919 31.0421 962.894 28.6373 964.635 26.8392C966.376 25.041 968.748 23.9906 971.25 23.91H1029.43C1016.52 17.91 1001.43 13.64 984.04 11.4C825.4 -8.96999 768.76 4.51002 748.78 18.4C724.13 35.5 696.63 48.08 667.24 54.14C569.36 74.33 386.309 98.63 220.399 46.36C137.939 20.36 76.6595 64.28 39.9195 137.64H1096.56C1095.18 116.32 1091.05 96.64 1083.47 79.4C1081.73 80.8969 1079.51 81.7169 1077.21 81.71Z" fill="#6C63FF"/>
<path id="Vector 3" opacity="0.1" d="M2.39949 276.1C-1.88182 319.251 -0.429191 362.78 6.71949 405.55L985.4 441.35C1012.65 410.009 1035.52 375.122 1053.4 337.64L2.39949 276.1ZM389.479 368.44H370.21C372.764 368.44 375.212 369.455 377.018 371.261C378.824 373.067 379.839 375.516 379.839 378.07C379.839 380.624 378.824 383.073 377.018 384.879C375.212 386.685 372.764 387.7 370.21 387.7H258.74C256.186 387.7 253.736 386.685 251.93 384.879C250.124 383.073 249.109 380.624 249.109 378.07C249.109 375.516 250.124 373.067 251.93 371.261C253.736 369.455 256.186 368.44 258.74 368.44H278.009C275.507 368.359 273.136 367.309 271.395 365.511C269.654 363.713 268.68 361.308 268.68 358.805C268.68 356.302 269.654 353.897 271.395 352.099C273.136 350.301 275.507 349.251 278.009 349.17H264.249C261.747 349.089 259.375 348.039 257.634 346.241C255.893 344.443 254.919 342.038 254.919 339.535C254.919 337.032 255.893 334.627 257.634 332.829C259.375 331.031 261.747 329.981 264.249 329.9H375.719C378.221 329.981 380.594 331.031 382.335 332.829C384.076 334.627 385.049 337.032 385.049 339.535C385.049 342.038 384.076 344.443 382.335 346.241C380.594 348.039 378.221 349.089 375.719 349.17H389.479C391.981 349.251 394.353 350.301 396.094 352.099C397.835 353.897 398.809 356.302 398.809 358.805C398.809 361.308 397.835 363.713 396.094 365.511C394.353 367.309 391.981 368.359 389.479 368.44Z" fill="#6C63FF"/>
<path id="Vector 4" opacity="0.1" d="M1096.61 138.28L28.1295 164.28C15.1295 197.69 6.55951 235.44 2.55951 274.61H1077.89C1084.91 251.612 1090.1 228.095 1093.42 204.28C1096.62 181.27 1097.9 159.01 1096.61 138.28ZM219.48 223.44H200.21C201.475 223.44 202.727 223.689 203.895 224.173C205.064 224.657 206.125 225.366 207.019 226.261C207.914 227.155 208.623 228.216 209.107 229.385C209.591 230.553 209.84 231.805 209.84 233.07C209.84 234.335 209.591 235.587 209.107 236.755C208.623 237.924 207.914 238.985 207.019 239.879C206.125 240.774 205.064 241.483 203.895 241.967C202.727 242.451 201.475 242.7 200.21 242.7H88.7395C86.1855 242.7 83.736 241.685 81.9301 239.879C80.1241 238.074 79.1095 235.624 79.1095 233.07C79.1095 230.516 80.1241 228.067 81.9301 226.261C83.736 224.455 86.1855 223.44 88.7395 223.44H108.01C105.508 223.359 103.136 222.309 101.395 220.511C99.6534 218.713 98.6799 216.308 98.6799 213.805C98.6799 211.302 99.6534 208.897 101.395 207.099C103.136 205.301 105.508 204.251 108.01 204.17H94.2495C91.7479 204.089 89.3757 203.039 87.6345 201.241C85.8934 199.443 84.9199 197.038 84.9199 194.535C84.9199 192.032 85.8934 189.627 87.6345 187.829C89.3757 186.031 91.7479 184.981 94.2495 184.9H205.72C208.222 184.981 210.594 186.031 212.335 187.829C214.076 189.627 215.049 192.032 215.049 194.535C215.049 197.038 214.076 199.443 212.335 201.241C210.594 203.039 208.222 204.089 205.72 204.17H219.48C221.982 204.251 224.354 205.301 226.095 207.099C227.836 208.897 228.81 211.302 228.81 213.805C228.81 216.308 227.836 218.713 226.095 220.511C224.354 222.309 221.982 223.359 219.48 223.44Z" fill="#6C63FF"/>
<path id="Vector 5" opacity="0.1" d="M563.63 791.89C756.284 791.89 912.46 783.437 912.46 773.01C912.46 762.583 756.284 754.13 563.63 754.13C370.977 754.13 214.799 762.583 214.799 773.01C214.799 783.437 370.977 791.89 563.63 791.89Z" fill="#6C63FF"/>
<path id="Vector 6" d="M853.22 634.18C853.22 634.18 858.709 641.37 850.679 652.18C842.649 662.99 836.029 672.18 838.679 678.95C838.679 678.95 850.789 658.8 860.679 658.52C870.569 658.24 864.06 646.3 853.22 634.18Z" fill="#6C63FF"/>
<path id="Vector 7" opacity="0.1" d="M853.22 634.18C853.694 634.876 854.07 635.633 854.34 636.43C863.96 647.74 869.08 658.29 859.84 658.55C851.22 658.8 840.889 674.2 838.419 678.09C838.497 678.392 838.595 678.689 838.71 678.98C838.71 678.98 850.82 658.83 860.71 658.55C870.6 658.27 864.06 646.3 853.22 634.18Z" fill="black"/>
<path id="Vector 8" d="M863.43 643.34C863.43 645.87 863.149 647.92 862.799 647.92C862.449 647.92 862.16 645.87 862.16 643.34C862.16 640.81 862.52 642 862.87 642C863.22 642 863.43 640.81 863.43 643.34Z" fill="#FFD037"/>
<path id="Vector 9" d="M866.93 646.36C864.71 647.57 862.78 648.3 862.61 647.99C862.44 647.68 864.11 646.45 866.33 645.24C868.55 644.03 867.67 644.91 867.84 645.24C868.01 645.57 869.15 645.15 866.93 646.36Z" fill="#FFD037"/>
<path id="Vector 10" d="M824.2 634.18C824.2 634.18 818.71 641.37 826.74 652.18C834.77 662.99 841.38 672.18 838.74 678.95C838.74 678.95 826.62 658.8 816.74 658.52C806.86 658.24 813.35 646.3 824.2 634.18Z" fill="#6C63FF"/>
<path id="Vector 11" opacity="0.1" d="M824.2 634.18C823.722 634.873 823.345 635.631 823.08 636.43C813.46 647.74 808.33 658.29 817.58 658.55C826.19 658.8 836.58 674.2 839 678.09C838.92 678.39 838.82 678.68 838.71 678.98C838.71 678.98 826.59 658.83 816.71 658.55C806.83 658.27 813.35 646.3 824.2 634.18Z" fill="black"/>
<path id="Vector 12" d="M813.99 643.34C813.99 645.87 814.27 647.92 814.62 647.92C814.97 647.92 815.26 645.87 815.26 643.34C815.26 640.81 814.899 642 814.549 642C814.199 642 813.99 640.81 813.99 643.34Z" fill="#FFD037"/>
<path id="Vector 13" d="M810.479 646.36C812.699 647.57 814.639 648.3 814.809 647.99C814.979 647.68 813.31 646.45 811.09 645.24C808.87 644.03 809.75 644.91 809.58 645.24C809.41 645.57 808.259 645.15 810.479 646.36Z" fill="#FFD037"/>
<path id="Vector 14" d="M815.74 678.04C815.74 678.04 831.1 677.56 835.74 674.27C840.38 670.98 859.37 667.03 860.52 672.27C861.67 677.51 883.6 698.56 866.26 698.7C848.92 698.84 825.97 696 821.35 693.19C816.73 690.38 815.74 678.04 815.74 678.04Z" fill="#A8A8A8"/>
<path id="Vector 15" opacity="0.2" d="M866.56 696.91C849.22 697.05 826.27 694.21 821.65 691.4C818.13 689.25 816.73 681.56 816.26 678.02H815.75C815.75 678.02 816.75 690.4 821.34 693.22C825.93 696.04 848.91 698.87 866.25 698.73C871.25 698.73 872.99 696.91 872.89 694.27C872.19 695.89 870.28 696.88 866.56 696.91Z" fill="black"/>
<path id="Vector 16" d="M269.239 683.66C271.074 682.162 272.413 680.143 273.079 677.87C273.569 675.58 272.589 672.87 270.399 671.98C267.939 671.04 265.309 672.75 263.309 674.47C261.309 676.19 259.039 678.16 256.429 677.79C257.771 676.575 258.775 675.032 259.343 673.312C259.911 671.593 260.023 669.756 259.669 667.98C259.555 667.244 259.244 666.553 258.769 665.98C257.399 664.52 254.929 665.14 253.289 666.29C248.089 669.95 246.639 677.02 246.609 683.37C246.089 681.08 246.529 678.69 246.519 676.37C246.509 674.05 245.859 671.37 243.879 670.14C242.65 669.484 241.271 669.16 239.879 669.2C237.539 669.11 234.939 669.35 233.339 671.05C231.339 673.18 231.869 676.74 233.599 679.05C235.329 681.36 237.949 682.86 240.359 684.47C242.299 685.623 243.953 687.199 245.199 689.08C245.341 689.347 245.461 689.624 245.559 689.91H260.209C263.487 688.243 266.525 686.141 269.239 683.66Z" fill="#6C63FF"/>
<path id="Vector 17" d="M152.809 699.44C152.809 699.44 138.749 651.73 155.439 616.62C162.544 601.935 164.691 585.34 161.559 569.33C160.014 561.747 157.774 554.323 154.869 547.15" stroke="#535461" stroke-width="2" stroke-miterlimit="10"/>
<path id="Vector 18" d="M165.22 524.95C165.22 530.8 154.64 547.76 154.64 547.76C154.64 547.76 144.049 530.76 144.049 524.95C144.134 522.199 145.287 519.589 147.263 517.673C149.239 515.757 151.883 514.685 154.635 514.685C157.387 514.685 160.031 515.757 162.007 517.673C163.983 519.589 165.135 522.199 165.22 524.95Z" fill="#6C63FF"/>
<path id="Vector 19" d="M182.719 557.34C179.549 562.25 161.439 570.73 161.439 570.73C161.439 570.73 161.769 550.73 164.949 545.83C166.512 543.557 168.899 541.984 171.604 541.444C174.309 540.905 177.118 541.442 179.433 542.941C181.748 544.441 183.386 546.784 184 549.473C184.614 552.162 184.154 554.985 182.719 557.34Z" fill="#6C63FF"/>
<path id="Vector 20" d="M181.959 612.69C176.739 615.32 156.829 613.5 156.829 613.5C156.829 613.5 167.209 596.41 172.429 593.78C173.674 593.121 175.038 592.716 176.441 592.591C177.844 592.465 179.258 592.621 180.6 593.049C181.943 593.476 183.186 594.167 184.258 595.082C185.33 595.996 186.208 597.115 186.842 598.373C187.476 599.631 187.853 601.002 187.95 602.408C188.047 603.813 187.863 605.224 187.408 606.557C186.954 607.89 186.237 609.12 185.302 610.173C184.366 611.226 183.23 612.082 181.959 612.69Z" fill="#6C63FF"/>
<path id="Vector 21" d="M171.949 654.44C167.249 657.92 147.319 659.44 147.319 659.44C147.319 659.44 154.659 640.85 159.319 637.37C160.428 636.461 161.711 635.786 163.089 635.387C164.467 634.989 165.912 634.874 167.335 635.051C168.759 635.227 170.132 635.691 171.371 636.414C172.61 637.137 173.689 638.105 174.543 639.258C175.396 640.41 176.007 641.725 176.338 643.121C176.668 644.517 176.711 645.965 176.465 647.378C176.219 648.792 175.688 650.14 174.905 651.342C174.122 652.544 173.102 653.574 171.909 654.37L171.949 654.44Z" fill="#6C63FF"/>
<path id="Vector 22" d="M139.22 571.86C143.41 575.93 162.95 580.16 162.95 580.16C162.95 580.16 158.16 560.75 153.95 556.67C152.961 555.66 151.78 554.857 150.476 554.311C149.173 553.764 147.774 553.484 146.36 553.486C144.947 553.489 143.547 553.775 142.246 554.326C140.945 554.878 139.767 555.685 138.782 556.699C137.797 557.713 137.027 558.914 136.513 560.231C136 561.548 135.756 562.954 135.795 564.367C135.833 565.78 136.154 567.171 136.739 568.458C137.323 569.745 138.161 570.902 139.2 571.86H139.22Z" fill="#6C63FF"/>
<path id="Vector 23" d="M128.129 620.83C133.349 623.46 153.26 621.64 153.26 621.64C153.26 621.64 142.879 604.56 137.659 601.92C135.159 600.723 132.291 600.554 129.668 601.448C127.045 602.343 124.877 604.23 123.629 606.705C122.382 609.18 122.155 612.046 122.996 614.687C123.838 617.327 125.68 619.533 128.129 620.83Z" fill="#6C63FF"/>
<path id="Vector 24" d="M123.889 669.91C128.589 673.38 148.509 674.91 148.509 674.91C148.509 674.91 141.179 656.32 136.509 652.84C134.247 651.331 131.492 650.75 128.814 651.217C126.136 651.684 123.74 653.163 122.122 655.347C120.504 657.532 119.788 660.255 120.123 662.953C120.457 665.651 121.817 668.117 123.919 669.84L123.889 669.91Z" fill="#6C63FF"/>
<path id="Vector 25" d="M165.22 524.95C165.22 530.8 154.64 547.76 154.64 547.76C154.64 547.76 144.049 530.76 144.049 524.95C144.134 522.199 145.287 519.589 147.263 517.673C149.239 515.757 151.883 514.685 154.635 514.685C157.387 514.685 160.031 515.757 162.007 517.673C163.983 519.589 165.135 522.199 165.22 524.95Z" fill="#6C63FF"/>
<path id="Vector 26" d="M182.719 557.34C179.549 562.25 161.439 570.73 161.439 570.73C161.439 570.73 161.769 550.73 164.949 545.83C166.512 543.557 168.899 541.984 171.604 541.444C174.309 540.905 177.118 541.442 179.433 542.941C181.748 544.441 183.386 546.784 184 549.473C184.614 552.162 184.154 554.985 182.719 557.34Z" fill="#6C63FF"/>
<path id="Vector 27" d="M181.959 612.69C176.739 615.32 156.829 613.5 156.829 613.5C156.829 613.5 167.209 596.41 172.429 593.78C173.674 593.121 175.038 592.716 176.441 592.591C177.844 592.465 179.258 592.621 180.6 593.049C181.943 593.476 183.186 594.167 184.258 595.082C185.33 595.996 186.208 597.115 186.842 598.373C187.476 599.631 187.853 601.002 187.95 602.408C188.047 603.813 187.863 605.224 187.408 606.557C186.954 607.89 186.237 609.12 185.302 610.173C184.366 611.226 183.23 612.082 181.959 612.69Z" fill="#6C63FF"/>
<path id="Vector 28" d="M171.949 654.44C167.249 657.92 147.319 659.44 147.319 659.44C147.319 659.44 154.659 640.85 159.319 637.37C160.428 636.461 161.711 635.786 163.089 635.387C164.467 634.989 165.912 634.874 167.335 635.051C168.759 635.227 170.132 635.691 171.371 636.414C172.61 637.137 173.689 638.105 174.543 639.258C175.396 640.41 176.007 641.725 176.338 643.121C176.668 644.517 176.711 645.965 176.465 647.378C176.219 648.792 175.688 650.14 174.905 651.342C174.122 652.544 173.102 653.574 171.909 654.37L171.949 654.44Z" fill="#6C63FF"/>
<path id="Vector 29" d="M139.22 571.86C143.41 575.93 162.95 580.16 162.95 580.16C162.95 580.16 158.16 560.75 153.95 556.67C152.961 555.66 151.78 554.857 150.476 554.311C149.173 553.764 147.774 553.484 146.36 553.486C144.947 553.489 143.547 553.775 142.246 554.326C140.945 554.878 139.767 555.685 138.782 556.699C137.797 557.713 137.027 558.914 136.513 560.231C136 561.548 135.756 562.954 135.795 564.367C135.833 565.78 136.154 567.171 136.739 568.458C137.323 569.745 138.161 570.902 139.2 571.86H139.22Z" fill="#6C63FF"/>
<path id="Vector 30" d="M128.129 620.83C133.349 623.46 153.26 621.64 153.26 621.64C153.26 621.64 142.879 604.56 137.659 601.92C135.159 600.723 132.291 600.554 129.668 601.448C127.045 602.343 124.877 604.23 123.629 606.705C122.382 609.18 122.155 612.046 122.996 614.687C123.838 617.327 125.68 619.533 128.129 620.83Z" fill="#6C63FF"/>
<path id="Vector 31" d="M123.889 669.91C128.589 673.38 148.509 674.91 148.509 674.91C148.509 674.91 141.179 656.32 136.509 652.84C134.247 651.331 131.492 650.75 128.814 651.217C126.136 651.684 123.74 653.163 122.122 655.347C120.504 657.532 119.788 660.255 120.123 662.953C120.457 665.651 121.817 668.117 123.919 669.84L123.889 669.91Z" fill="#6C63FF"/>
<path id="Vector 32" d="M119.56 696.44C119.56 696.44 136.68 693.04 141.24 688.51C145.8 683.98 166.34 676.05 168.62 681.71C170.9 687.37 199.42 706.63 180.02 710.03C160.62 713.43 134.389 714.56 128.689 712.29C122.989 710.02 119.56 696.44 119.56 696.44Z" fill="#A8A8A8"/>
<path id="Vector 33" opacity="0.2" d="M180.049 707.91C160.66 711.31 134.42 712.44 128.72 710.18C124.38 708.45 121.36 700.18 120.17 696.31L119.56 696.44C119.56 696.44 122.989 710.03 128.689 712.29C134.389 714.55 160.63 713.42 180.02 710.03C185.62 709.03 187.22 706.74 186.62 703.83C186.17 705.72 184.219 707.18 180.049 707.91Z" fill="black"/>
<path id="Vector 34" d="M438.959 339.5C438.959 339.5 435.609 366.95 462.179 369.76L466.179 350.76L457.809 339.5L445.819 335.44L438.959 339.5Z" fill="#6C63FF"/>
<path id="Vector 35" opacity="0.1" d="M445.819 335.44L438.959 339.49C438.959 339.49 435.609 366.94 462.179 369.75" fill="black"/>
<path id="Vector 36" d="M487.169 184.29C487.169 184.29 469.239 185.39 451.259 188.37C449.419 188.683 447.589 189.017 445.769 189.37C444.709 189.57 443.669 189.78 442.629 190.01C433.209 191.95 424.629 194.47 419.629 197.69C413.629 201.54 411.629 191.17 411.439 176.76C411.359 171.69 411.529 166.13 411.799 160.51C412.149 154.01 412.659 147.43 413.199 141.51C414.389 128.39 415.759 118.19 415.759 118.19C415.759 118.19 422.04 118.19 430.43 117.9L433.129 117.8C435.759 117.7 438.549 117.56 441.359 117.39C442.689 117.32 444.029 117.24 445.359 117.14C450.679 116.76 455.929 116.22 460.359 115.52C465.079 114.76 468.909 113.8 470.989 112.52C480.489 106.86 487.169 184.29 487.169 184.29Z" fill="#F8BDC5"/>
<path id="Vector 37" d="M567.06 285.65L563.56 308.88C563.56 308.88 555.93 318.38 556.93 323.66C557.93 328.94 566.73 562.28 566.73 562.28C566.73 562.28 583.98 660.82 577.99 673.49C572 686.16 577.64 715.73 577.64 715.73L613.54 710.1L625.54 279.31L567.06 285.65Z" fill="#474463"/>
<path id="Vector 38" opacity="0.1" d="M567.06 285.65L563.56 308.88C563.56 308.88 555.93 318.38 556.93 323.66C557.93 328.94 566.73 562.28 566.73 562.28C566.73 562.28 583.98 660.82 577.99 673.49C572 686.16 577.64 715.73 577.64 715.73L613.54 710.1L625.54 279.31L567.06 285.65Z" fill="black"/>
<path id="Vector 39" d="M646.249 721.71C645.109 723.6 645.2 729.16 645.52 733.89C645.8 737.96 646.249 741.42 646.249 741.42V765.35C646.249 765.35 607.89 751.98 586.77 737.9C578.06 732.09 575.579 726.69 576.059 722.37C576.759 716.22 583.46 712.21 586.77 712.21C589.93 712.21 599.91 706.7 608.09 701.83C614.52 698.02 619.859 694.61 619.859 694.61C619.859 694.61 648.359 718.19 646.249 721.71Z" fill="#575988"/>
<path id="Vector 40" opacity="0.1" d="M646.25 721.71C645.11 723.6 645.2 729.16 645.52 733.89C636.99 729.89 610.58 704.27 608.09 701.83C614.52 698.02 619.859 694.61 619.859 694.61C619.859 694.61 648.36 718.19 646.25 721.71Z" fill="black"/>
<path id="Vector 41" d="M725.09 301.84L715.94 335.63C715.94 335.63 710.66 345.83 709.94 350.76C709.22 355.69 704.31 363.08 704.31 363.08C702.088 367.944 700.89 373.213 700.79 378.56C700.44 388.07 693.789 432.06 686.359 439.45L684.6 467.96C684.6 467.96 677.6 472.88 682.49 479.96C687.38 487.04 685.66 505.3 685.66 505.3C685.66 505.3 678.97 510.58 683.2 515.86C687.43 521.14 684.6 536.63 684.6 536.63C684.6 536.63 680.73 541.55 682.49 544.37C684.25 547.19 680.75 619.69 680.75 619.69L672.29 655.23C672.29 655.23 668.41 684.8 666.29 693.6C664.17 702.4 664.18 713.3 664.18 713.3C664.18 713.3 655.03 732.66 648.34 731.61C641.65 730.56 609.28 698.87 609.28 698.87L613.85 591.87C613.85 591.87 617.72 546.47 615.26 537.67C612.8 528.87 611.04 484.88 611.04 484.88L606.11 415.55L556.89 338.12C556.89 338.12 553.32 315.59 563.52 308.91L565.37 296.74L567.04 285.68L625.47 279.34L714.859 256.12C714.859 256.12 721.749 260.37 725.359 270.98C727.829 278.13 728.78 288.21 725.09 301.84Z" fill="#474463"/>
<path id="Vector 42" d="M569.56 337.44C569.56 337.44 528.03 388.44 529.79 374.19C530.89 365.24 525.21 354.31 520.79 347.4C518.18 343.29 516.02 340.6 516.02 340.6C516.02 340.6 541.36 294.15 542.77 300.48C543.22 302.48 546.149 307.07 549.919 312.31C557.869 323.29 569.56 337.44 569.56 337.44Z" fill="#FFC1C8"/>
<path id="Vector 43" opacity="0.3" d="M646.249 760.37V765.37C646.249 765.37 607.89 752 586.77 737.92C578.06 732.11 575.579 726.71 576.059 722.39C587.719 728.29 609.409 739.54 615.979 744.61C621.559 748.91 635.979 755.72 646.249 760.37Z" fill="white"/>
<g id="skate">
<path id="Vector 44" d="M691.4 755.33C691.334 756.165 691.099 756.978 690.71 757.72L683.71 765.35L585.869 763.78L559.559 763.35C559.559 763.35 504.18 753.27 493.39 748.57C482.6 743.87 440.18 735.27 440.18 735.27C440.18 735.27 414.56 730.97 410.8 718.54C409.53 714.33 410.169 711.32 411.559 709.18C414.289 704.99 419.949 704.11 419.949 704.11C431.51 700.695 443.872 701.151 455.15 705.41L619.15 747.6L621.689 748.25C621.689 748.25 680.149 747.16 681.329 747.37C690.299 749.01 691.61 752.82 691.4 755.33Z" fill="#6C63FF"/>
<path id="Vector 45" opacity="0.3" d="M691.4 754.064C681.696 752.592 664.773 750.419 660.414 752.512C660.414 752.512 629.635 748.074 587.288 763.78L561.38 763.286C561.38 763.286 506.765 751.695 496.124 746.291C485.483 740.887 443.649 730.999 443.649 730.999C443.649 730.999 418.383 726.054 414.675 711.762C413.422 706.922 414.053 703.461 415.424 701C417.15 706.864 420.473 715.361 425.779 717.741C434.112 721.478 468.363 729.09 468.363 729.09L536.154 748.441C536.154 748.441 575.296 758.341 590.532 751.891C596.775 749.269 608.491 746.935 620.118 745.107L622.623 745.854C622.623 745.854 680.276 744.601 681.439 744.843C690.315 746.797 691.607 751.178 691.4 754.064Z" fill="white"/>
</g>
<path id="Vector 46" d="M596.47 742.66C596.387 744.134 596.202 745.601 595.919 747.05C595.919 747.05 557.039 748.44 536.799 745.44C531.209 744.61 528.049 742.82 526.479 740.68C525.778 739.669 525.344 738.497 525.216 737.274C525.088 736.05 525.273 734.814 525.75 733.68C525.974 733.028 526.258 732.399 526.6 731.8C528.11 729.16 530.43 727.29 531.7 727.54C535.22 728.25 541.26 721.03 541.26 721.03C540.78 716.62 547.71 715.03 548.79 715.75C548.983 715.898 549.209 715.994 549.45 716.029C549.691 716.063 549.937 716.034 550.164 715.946C550.39 715.857 550.589 715.712 550.742 715.523C550.896 715.335 550.999 715.11 551.04 714.87C551.11 714.54 551.13 712.95 551.13 711.09C551.13 707.99 551.04 704.09 551.04 704.09L590.12 708.84L591.669 716.31C593.089 722.97 595.069 732.12 595.919 735.25C596.51 737.673 596.697 740.177 596.47 742.66Z" fill="#474463"/>
<path id="Vector 47" opacity="0.1" d="M596.47 742.66C596.387 744.134 596.202 745.601 595.919 747.05C595.919 747.05 557.039 748.44 536.799 745.44C531.209 744.61 528.049 742.82 526.479 740.68C531.669 740.37 538.42 740.2 542.6 741.22C548.56 742.7 584.21 742.7 596.47 742.66Z" fill="black"/>
<path id="Vector 48" d="M526.559 731.78C526.602 732.141 526.545 732.507 526.395 732.838C526.245 733.169 526.008 733.453 525.709 733.66C520.789 737.46 497.179 733.33 497.179 733.33C497.179 733.33 448.939 730.33 441.729 725.41C441.078 724.982 440.534 724.411 440.139 723.74C437.139 718.32 447.999 709.22 448.939 709.22C449.879 709.22 462.849 707.45 463.719 707.28C469.719 706.07 475.719 702.35 476.719 703.41C477.719 704.47 482.719 702 485.159 701.65C486.049 701.52 486.459 700.26 486.609 698.65C486.75 696.471 486.676 694.284 486.389 692.12L524.919 702.49L525.259 708.63L526.369 729.07L526.509 731.58C526.533 731.645 526.55 731.712 526.559 731.78Z" fill="#474463"/>
<path id="Vector 49" opacity="0.1" d="M497.219 733.33C497.219 733.33 448.98 730.33 441.77 725.41C441.119 724.982 440.575 724.411 440.18 723.74C449.95 724.54 466.24 725.89 469.18 726.64C473.41 727.64 497.18 729.1 497.18 729.1H526.41L526.549 731.61C527.819 738.69 497.219 733.33 497.219 733.33Z" fill="black"/>
<path id="Vector 50" d="M466.759 352.17C466.759 352.17 464.539 356.17 461.199 362.11C453.199 376.23 438.809 401.26 432.619 409.18C423.819 420.44 424.529 409.89 415.019 386.31C407.959 368.77 429.689 348.7 441.309 339.58C445.309 336.41 448.109 334.58 448.109 334.58L466.759 352.17Z" fill="#F8BDC5"/>
<path id="Vector 51" d="M509.339 379.27C509.339 379.27 480.129 381.73 474.499 383.49C468.869 385.25 444.589 384.19 442.499 383.49C440.409 382.79 398.849 392.29 417.859 401.79C436.869 411.29 448.859 401.79 448.859 401.79C448.859 401.79 473.499 400.38 479.859 404.26C486.219 408.14 509.419 406.02 509.419 406.02L509.339 379.27Z" fill="#FFC1C8"/>
<path id="Vector 52" opacity="0.1" d="M448.659 163.88C452.259 173.09 450.01 181.11 445.77 189.34C435.15 191.34 425.159 194.09 419.599 197.66C403.759 207.87 415.729 118.12 415.729 118.12C415.729 118.12 423.389 118.12 433.099 117.73C430.159 131.15 441.299 145.08 448.659 163.88Z" fill="black"/>
<path id="Vector 53" d="M449.559 161.88C449.54 176.621 444.096 190.839 434.264 201.822C424.432 212.805 410.902 219.784 396.253 221.429C381.604 223.073 366.863 219.268 354.841 210.738C342.818 202.209 334.357 189.552 331.07 175.183C327.783 160.813 329.902 145.736 337.02 132.828C344.139 119.92 355.76 110.085 369.667 105.197C383.574 100.31 398.792 100.713 412.421 106.33C426.049 111.946 437.134 122.383 443.559 135.65C447.519 143.826 449.571 152.795 449.559 161.88Z" fill="#F8BDC5"/>
<path id="Vector 54" opacity="0.1" d="M725.38 270.95C723.48 273.715 720.635 275.689 717.38 276.5C703.65 280.37 606.86 303.6 600.53 302.19C594.94 300.95 570.949 297.5 565.419 296.71L567.09 285.65L625.52 279.31L714.91 256.09C714.91 256.09 721.77 260.34 725.38 270.95Z" fill="black"/>
<path id="Vector 55" opacity="0.1" d="M487.169 184.29C475.728 184.976 464.331 186.244 453.02 188.09C453.181 187.575 453.16 187.021 452.96 186.52L476.359 183.63C476.359 183.63 472.939 128.63 460.359 115.45C465.079 114.69 468.91 113.73 470.99 112.45C480.49 106.86 487.169 184.29 487.169 184.29Z" fill="black"/>
<path id="Vector 56" d="M456.559 101.69C456.559 101.69 477.329 99.82 480.139 96.3C482.949 92.78 503.019 91.73 503.019 91.73C503.019 91.73 512.869 89.97 515.019 87.5C517.169 85.03 570.62 81.87 575.9 84.69C581.18 87.51 586.11 89.26 589.28 89.62C592.45 89.98 617.08 107.56 619.54 107.56C622 107.56 689.54 171.27 689.54 171.27C689.54 171.27 696.54 187.46 699.4 188.16C702.26 188.86 727.559 252.92 727.559 252.92C727.559 252.92 731.079 268.4 717.359 272.28C703.639 276.16 606.839 299.38 600.509 297.97C594.179 296.56 564.259 292.34 564.259 292.34C564.259 292.34 564.61 292.34 563.91 288.47C563.21 284.6 562.149 285.65 563.549 282.13C564.949 278.61 566.369 278.96 564.609 276.85C562.849 274.74 564.609 273.68 558.979 270.16C553.349 266.64 546.98 262.77 546.66 261.72C546.34 260.67 541.379 253.62 538.919 253.27C536.459 252.92 467.469 233.56 467.469 233.56L451.279 228.28C451.279 228.28 443.539 223 445.279 219.84C447.019 216.68 453.009 188.09 453.009 188.09L477.759 185.04C477.759 185.04 474.069 125.44 460.209 115.44C446.349 105.44 456.559 101.69 456.559 101.69Z" fill="#6C63FF"/>
<path id="Vector 57" opacity="0.1" d="M466.759 352.17C466.759 352.17 464.539 356.17 461.199 362.11C460.679 343.75 447.839 340.19 441.309 339.58C445.309 336.41 448.109 334.58 448.109 334.58L466.759 352.17Z" fill="black"/>
<path id="Vector 58" d="M449.559 218.78L451.259 228.28C451.259 228.28 457.949 236.38 457.949 238.84C457.949 241.3 465.689 248.34 467.809 252.21C469.929 256.08 477.31 256.79 474.49 263.48C471.67 270.17 455.49 321.2 455.49 321.2L438.949 339.5C438.949 339.5 466.399 337.03 462.169 369.76L497.719 338.76L525.559 288.11C525.559 288.11 498.459 236.73 497.409 232.51C496.359 228.29 449.559 218.78 449.559 218.78Z" fill="#6C63FF"/>
<path id="Vector 59" opacity="0.1" d="M531.87 236.38C531.87 236.38 554.39 220.54 554.39 218.78C554.39 217.02 531.87 236.38 531.87 236.38Z" fill="black"/>
<path id="Vector 60" opacity="0.1" d="M569.56 256.09C569.56 256.09 581.56 253.27 582.56 246.94C583.56 240.61 569.56 256.09 569.56 256.09Z" fill="black"/>
<path id="Vector 61" opacity="0.1" d="M579.38 272.28C579.38 272.28 596.28 263.91 595.57 262.46C594.86 261.01 579.38 272.28 579.38 272.28Z" fill="black"/>
<path id="Vector 62" opacity="0.1" d="M669.83 218.67C669.83 218.67 662.83 223.24 664.91 227.52C666.99 231.8 669.83 218.67 669.83 218.67Z" fill="black"/>
<path id="Vector 63" opacity="0.1" d="M690.559 220.54C690.559 220.54 670.619 239.54 675.129 239.9C679.639 240.26 690.559 220.54 690.559 220.54Z" fill="black"/>
<path id="Vector 64" opacity="0.1" d="M645.2 515.12C645.2 515.12 670.89 520.05 671.59 521.81C672.29 523.57 645.2 515.12 645.2 515.12Z" fill="black"/>
<path id="Vector 65" opacity="0.1" d="M654.35 532.01C654.35 532.01 668.069 540.46 668.419 542.92C668.769 545.38 654.35 532.01 654.35 532.01Z" fill="black"/>
<path id="Vector 66" opacity="0.1" d="M651.18 551.02C651.18 551.02 653.29 560.52 656.81 561.93C660.33 563.34 651.18 551.02 651.18 551.02Z" fill="black"/>
<path id="Vector 67" opacity="0.1" d="M443.619 135.34C443.619 135.44 443.619 135.55 443.569 135.65C443.089 138.78 441.809 142.17 438.869 143.21C437.093 143.71 435.194 143.535 433.539 142.72C428.539 140.53 424.089 135.27 418.749 136.54C416.209 137.14 414.429 139.07 413.169 141.44C412.295 143.146 411.624 144.948 411.169 146.81C410.169 150.73 409.37 154.99 410.9 158.72C411.152 159.33 411.452 159.919 411.799 160.48C413.219 162.75 415.219 164.68 416.619 166.97C418.359 169.83 418.809 174.12 416.099 176.08C415.419 176.527 414.648 176.817 413.842 176.93C413.036 177.042 412.215 176.974 411.439 176.73C409.454 176.106 407.545 175.261 405.749 174.21C402.209 172.36 397.749 171.21 394.389 173.35C393.229 174.07 392.299 175.11 391.189 175.87C388.882 177.299 386.146 177.869 383.46 177.48C377.1 176.83 374.719 172.8 369.859 169.68C366.299 167.38 358.86 166.4 356.74 171.1C355.38 174.1 357.399 177.88 356.069 180.94C354.739 184 350.509 184.94 348.549 187.78C345.969 191.52 348.369 196.93 346.479 201.08C346.19 201.723 345.802 202.317 345.329 202.84C334.732 191.421 328.976 176.338 329.271 160.763C329.566 145.187 335.889 130.333 346.911 119.324C357.933 108.315 372.795 102.009 388.371 101.732C403.947 101.456 419.024 107.23 430.43 117.84L433.129 117.74C435.759 117.64 438.549 117.5 441.359 117.33C442.023 118.737 442.543 120.208 442.909 121.72C443.997 126.175 444.238 130.796 443.619 135.34Z" fill="black"/>
<path id="Vector 68" d="M355.309 169.7C353.939 172.7 355.959 176.48 354.639 179.53C353.319 182.58 349.059 183.53 347.119 186.37C344.529 190.12 346.929 195.53 345.049 199.67C342.889 204.4 336.369 205.14 331.369 203.76C327.097 202.54 323.178 200.321 319.934 197.287C316.689 194.253 314.213 190.49 312.71 186.31C309.32 176.66 311.509 166.04 310.629 155.85C310.254 151.483 309.313 147.184 307.829 143.06C306.379 139.06 304.4 135.12 303.93 130.87C303.594 127.264 304.345 123.64 306.088 120.465C307.831 117.291 310.487 114.711 313.71 113.06C317.83 111.06 322.9 110.49 325.9 107.06C328.2 104.4 328.689 100.69 329.759 97.34C332.649 88.34 341.279 81 350.759 81.09C358.339 81.15 365.759 85.62 373.169 83.86C377.359 82.86 381.17 79.86 385.49 80.29C387.559 80.6154 389.541 81.3533 391.319 82.46C402.821 88.6723 413.764 95.8657 424.029 103.96C426.152 105.789 428.478 107.369 430.96 108.67C432.558 109.293 434.117 110.011 435.629 110.82C438.859 112.82 440.549 116.63 441.469 120.33C442.573 124.783 442.825 129.404 442.21 133.95C441.77 137.16 440.51 140.76 437.46 141.83C435.678 142.327 433.774 142.145 432.119 141.32C427.119 139.15 422.679 133.89 417.339 135.15C412.979 136.15 410.88 141.09 409.74 145.42C408.74 149.34 407.919 153.6 409.469 157.34C410.749 160.44 413.47 162.71 415.18 165.58C416.89 168.45 417.379 172.74 414.659 174.69C411.659 176.86 407.589 174.55 404.299 172.83C400.779 170.98 396.299 169.83 392.949 171.96C391.799 172.68 390.869 173.72 389.749 174.49C387.44 175.905 384.71 176.471 382.029 176.09C375.659 175.44 373.28 171.41 368.43 168.29C364.86 165.97 357.439 164.99 355.309 169.7Z" fill="#474463"/>
<path id="Vector 69" opacity="0.1" d="M549.93 312.26C549.66 313.76 547.6 313.93 547.18 315.39C543.18 329.5 534.379 342.19 520.799 347.39C518.189 343.28 516.03 340.59 516.03 340.59C516.03 340.59 541.37 294.14 542.78 300.47C543.23 302.44 546.16 307.02 549.93 312.26Z" fill="black"/>
<path id="Vector 70" d="M550.679 302.54C550.681 311.729 547.958 320.713 542.854 328.355C537.75 335.996 530.495 341.953 522.005 345.471C513.516 348.989 504.175 349.91 495.162 348.119C486.149 346.327 477.869 341.903 471.37 335.406C464.872 328.909 460.446 320.63 458.652 311.618C456.859 302.605 457.779 293.263 461.296 284.773C464.812 276.283 470.766 269.026 478.406 263.921C486.047 258.815 495.03 256.09 504.219 256.09C510.326 256.068 516.376 257.254 522.023 259.58C527.669 261.906 532.799 265.327 537.118 269.644C541.436 273.962 544.859 279.091 547.186 284.737C549.514 290.383 550.7 296.433 550.679 302.54Z" fill="#FFC1C8"/>
<path id="Vector 71" opacity="0.1" d="M524.999 702.52L525.34 708.66C521.27 709.56 513.53 710.74 509.02 707.98C503.19 704.41 494.579 703.54 486.689 698.68C486.83 696.501 486.756 694.314 486.469 692.15L524.999 702.52Z" fill="black"/>
<path id="Vector 72" opacity="0.1" d="M591.669 716.33C591.399 717.7 591.15 718.54 591.15 718.54C591.15 718.54 560.1 715.36 551.15 711.07C551.15 707.97 551.06 704.07 551.06 704.07L590.14 708.82L591.669 716.33Z" fill="black"/>
<path id="Vector 73" d="M584.66 576.71C582.55 582.34 581.489 583.4 583.609 586.21C585.729 589.02 584.659 603.81 581.299 605.21C577.939 606.61 565.299 615.06 565.299 615.06C565.299 615.06 572.299 624.21 572.509 628.06C572.693 630.52 573.644 632.86 575.229 634.75C575.229 634.75 586.069 657.98 588.229 665.37C590.389 672.76 592.369 684.37 592.369 684.37C592.369 684.37 588.58 694.93 591.2 700.92C593.82 706.91 591.2 715.7 591.2 715.7C591.2 715.7 553.39 711.83 549.2 706.86C545.01 701.89 547.799 690.71 547.799 690.71C546.935 685.728 545.145 680.952 542.52 676.63C538.29 669.94 543.52 662.91 542.52 662.55C541.52 662.19 538.289 658.33 535.109 652C531.929 645.67 529.95 648.12 529.95 648.12C529.95 648.12 534.07 683.67 529.95 686.84C525.83 690.01 525.27 688.6 526.33 692.84C527.151 696.91 527.739 701.023 528.09 705.16C528.09 705.16 515.419 709.03 509.089 705.16C502.759 701.29 493.23 700.58 484.86 694.6C476.49 688.62 488.649 678.41 490.759 677C492.869 675.59 490.059 655.18 490.059 655.18L487.24 635.12C487.24 635.12 496.739 637.23 493.619 629.49C490.499 621.75 486.889 595 485.129 590.78C483.369 586.56 491.129 580.92 490.059 578.11C488.989 575.3 494.629 559.11 494.629 559.11C494.629 559.11 494.989 545.74 498.499 543.23C499.839 542.29 500.709 539.37 501.289 536.14C501.904 532.328 502.268 528.48 502.379 524.62C502.379 524.62 582.969 518.99 595.989 526.73C601.849 530.21 601.439 536.62 598.989 543.11C595.989 551.03 589.83 559.11 588.28 562.04C585.37 567.44 586.77 571.08 584.66 576.71Z" fill="#575988"/>
<path id="Vector 74" opacity="0.1" d="M598.889 543.11C588.889 545.92 575.57 550.05 573.4 552.42C569.88 556.3 557.91 530.6 557.91 530.6C557.91 530.6 558.62 549.92 542.78 541.84C529.07 534.84 506.939 535.76 501.219 536.14C501.834 532.328 502.198 528.48 502.309 524.62C502.309 524.62 582.899 518.99 595.919 526.73C601.779 530.21 601.369 536.62 598.889 543.11Z" fill="black"/>
<path id="Vector 75" d="M557.91 330.35C557.91 330.35 564.909 321.9 566.359 325.07C567.809 328.24 576.069 334.57 576.069 334.57C576.069 334.57 578.439 341.96 582.609 343.02C586.779 344.08 618.1 386.31 618.1 386.31L606.829 409.18L597.679 464.79C597.679 464.79 598.08 473.59 595.59 476.79C593.1 479.99 583.589 479.25 587.999 483.12C592.409 486.99 598.739 490.51 602.259 508.12C605.779 525.73 609.999 535.92 609.999 535.92C609.999 535.92 576.92 544.37 573.4 548.24C569.88 552.11 557.91 526.42 557.91 526.42C557.91 526.42 558.62 545.73 542.78 537.66C526.94 529.59 499.839 532.05 499.839 532.05V511.25C499.839 511.25 505.119 503.15 502.309 497.52C499.499 491.89 504.229 481.33 504.229 481.33C504.229 481.33 502.659 470.42 499.839 464.09C497.019 457.76 498.079 427.84 498.079 427.84C498.079 427.84 495.939 408.48 497.889 398.62C499.544 390.074 502.466 381.823 506.559 374.14C510.429 366.6 512.879 359.56 511.829 356.74C510.779 353.92 521.119 347.82 521.119 347.82L526.85 357.09L528.309 362.63C528.309 362.63 558.62 340.91 557.91 330.35Z" fill="#DCE6F2"/>
<path id="Vector 76" d="M608.56 379.27C608.56 379.27 628.27 398.62 630.38 401.79C632.49 404.96 639.56 421.44 630.41 426.44C621.26 431.44 585.41 439.15 581.85 436.49C578.29 433.83 556.85 439.49 556.85 439.49C556.85 439.49 520.989 448.29 528.729 433.86C536.469 419.43 554.78 421.86 554.78 421.86C554.78 421.86 584.36 421.81 587.52 418.86C590.68 415.91 614.52 409.58 609.12 396.54C603.72 383.5 608.56 379.27 608.56 379.27Z" fill="#FFC1C8"/>
<path id="Vector 77" opacity="0.1" d="M550.679 465.85C550.679 465.85 504.769 505.62 509.339 505.62C513.909 505.62 550.679 465.85 550.679 465.85Z" fill="black"/>
<path id="Vector 78" opacity="0.1" d="M581.3 482.04C581.3 482.04 566.71 485.55 569.53 487.67C572.35 489.79 581.3 482.04 581.3 482.04Z" fill="black"/>
<path id="Vector 79" opacity="0.1" d="M529.85 385.6C529.85 385.6 548.06 387.23 544.85 392.93C541.64 398.63 529.85 385.6 529.85 385.6Z" fill="black"/>
<path id="Vector 80" opacity="0.1" d="M518.5 556.53C518.5 556.53 516.03 563.69 518.5 567.53C520.97 571.37 518.5 580.53 518.5 580.53V612.53C518.5 612.53 518.16 635.76 526.59 643.85L518.5 556.53Z" fill="black"/>
<path id="Vector 81" opacity="0.1" d="M494.389 656.25C494.389 656.25 499.31 663.46 500.02 666.1C500.73 668.74 494.389 656.25 494.389 656.25Z" fill="black"/>
<path id="Vector 82" opacity="0.1" d="M495.619 641.82C495.619 641.82 507.059 639.71 508.819 640.94C510.579 642.17 495.619 641.82 495.619 641.82Z" fill="black"/>
<path id="Vector 83" opacity="0.1" d="M492.279 684.93C492.279 684.93 488.929 685.28 495.619 688.93C502.309 692.58 515.329 697.2 515.499 695.62C515.669 694.04 492.279 684.93 492.279 684.93Z" fill="black"/>
<path id="Vector 84" opacity="0.1" d="M541.25 649.91C542.43 649.91 557.16 649.03 556.31 651.32C555.46 653.61 541.25 649.91 541.25 649.91Z" fill="black"/>
<path id="Vector 85" opacity="0.1" d="M561.26 629.32C561.26 629.32 564.6 623.52 565.83 625.98C567.06 628.44 561.26 629.32 561.26 629.32Z" fill="black"/>
<path id="Vector 86" opacity="0.1" d="M550.679 302.54C550.684 306.859 550.086 311.157 548.9 315.31C546.96 317.07 543.61 317.09 541.22 315.78C538.42 314.24 536.59 311.44 534.77 308.78C532.95 306.12 530.88 303.46 527.9 302.32C524.13 300.9 519.829 302.32 516.549 304.68C513.269 307.04 510.65 310.16 507.55 312.68C504.45 315.2 500.5 317.24 496.55 316.62C494 316.23 491.74 314.79 489.55 313.4C486.55 311.51 483.329 308.57 480.039 307.3C476.749 306.03 474.039 308.3 470.909 308.3C468.419 309.2 465.71 311.25 466.21 313.84C466.478 314.801 466.911 315.708 467.49 316.52C468.495 318.5 468.891 320.733 468.629 322.937C468.367 325.142 467.46 327.22 466.02 328.91C461.875 322.918 459.197 316.034 458.203 308.816C457.209 301.598 457.928 294.247 460.3 287.357C462.672 280.468 466.63 274.233 471.856 269.156C477.083 264.079 483.431 260.302 490.386 258.131C497.342 255.96 504.709 255.455 511.895 256.657C519.082 257.86 525.885 260.735 531.755 265.052C537.625 269.369 542.398 275.006 545.687 281.508C548.976 288.009 550.689 295.194 550.689 302.48L550.679 302.54Z" fill="black"/>
<path id="Vector 87" d="M470.9 306.95C468.41 307.85 465.699 309.9 466.189 312.5C466.467 313.456 466.904 314.358 467.48 315.17C470.4 320.38 467.93 327.86 462.48 330.28C461.626 330.725 460.65 330.879 459.7 330.72C458.947 330.486 458.261 330.075 457.7 329.52C454.769 326.9 452.748 323.415 451.93 319.57C451.07 315.57 451.599 311.33 451.159 307.22C450.719 303.11 449.31 299.06 448.82 294.92C448.473 292.874 448.691 290.772 449.45 288.84C450.11 287.565 450.958 286.399 451.969 285.38C454.779 282.25 457.709 279.05 459.119 275.08C461.349 268.76 459.73 260.71 464.61 256.08C466.87 253.96 470.03 253.17 472.83 251.83C475.466 250.43 477.99 248.829 480.379 247.04C489.429 240.82 500.429 236.04 511.189 238.24C515.488 239.281 519.606 240.967 523.4 243.24C530.448 247.125 537.14 251.622 543.4 256.68C546.107 258.682 548.471 261.11 550.4 263.87C551.837 266.233 552.871 268.818 553.46 271.52C554.897 277.415 555.094 283.545 554.04 289.52C553.04 295.38 550.769 301.07 550.679 307.02C550.679 309.02 550.839 311.18 549.809 312.9C548.159 315.64 544.07 315.9 541.27 314.38C538.47 312.86 536.64 310.04 534.83 307.38C533.02 304.72 530.94 302.06 527.96 300.93C524.19 299.5 519.889 300.93 516.609 303.28C513.329 305.63 510.72 308.76 507.61 311.28C504.5 313.8 500.61 315.84 496.61 315.22C494.06 314.83 491.8 313.4 489.61 312.01C486.61 310.11 483.39 307.17 480.11 305.91C476.83 304.65 474.02 306.95 470.9 306.95Z" fill="#794F6A"/>
<path id="Vector 88" d="M577.62 379.27C577.62 379.27 525.89 427.13 536.44 451.06C546.99 474.99 593.44 432.76 593.44 432.76L610 394.44L577.62 379.27Z" fill="#F8BDC5"/>
<g id="Group_2" opacity="0.1">
<path id="Vector 89" opacity="0.1" d="M462.459 327.44C461.608 327.885 460.636 328.039 459.689 327.88C458.932 327.648 458.245 327.233 457.689 326.67C454.758 324.053 452.734 320.572 451.909 316.73C451.059 312.68 451.589 308.48 451.149 304.37C450.709 300.26 449.289 296.22 448.809 292.07C448.809 291.87 448.809 291.66 448.759 291.45C448.651 292.595 448.667 293.749 448.809 294.89C449.289 299.03 450.709 303.03 451.149 307.19C451.589 311.35 451.059 315.5 451.909 319.54C452.731 323.386 454.755 326.871 457.689 329.49C458.248 330.046 458.935 330.458 459.689 330.69C460.636 330.849 461.608 330.695 462.459 330.25C466.759 328.34 469.189 323.31 468.619 318.71C468.41 320.566 467.737 322.34 466.66 323.866C465.583 325.392 464.138 326.621 462.459 327.44Z" fill="black"/>
<path id="Vector 90" opacity="0.1" d="M553.97 286.69C552.97 292.55 550.699 298.24 550.619 304.19C550.619 306.19 550.779 308.35 549.739 310.07C548.099 312.81 544.009 313.07 541.209 311.55C538.409 310.03 536.579 307.22 534.759 304.55C532.939 301.88 530.879 299.23 527.889 298.1C524.129 296.68 519.829 298.1 516.549 300.46C513.269 302.82 510.649 305.93 507.549 308.46C504.449 310.99 500.499 313.02 496.549 312.41C493.999 312.01 491.739 310.58 489.549 309.19C486.549 307.29 483.329 304.36 480.049 303.09C476.769 301.82 474.049 304.09 470.919 304.09C468.429 305 465.719 307.04 466.199 309.65C466.26 309.932 466.351 310.207 466.469 310.47C467.449 308.763 469.039 307.491 470.919 306.91C474.039 306.91 476.799 304.67 480.049 305.91C483.299 307.15 486.579 310.11 489.549 312.01C491.719 313.4 493.979 314.83 496.549 315.22C500.549 315.84 504.469 313.83 507.549 311.28C510.629 308.73 513.279 305.58 516.549 303.28C519.819 300.98 524.129 299.5 527.889 300.93C530.889 302.06 532.949 304.75 534.759 307.38C536.569 310.01 538.409 312.8 541.209 314.38C544.009 315.96 548.099 315.64 549.739 312.9C550.739 311.18 550.589 309.03 550.619 307.02C550.699 301.07 552.94 295.38 553.97 289.52C554.498 286.51 554.711 283.454 554.609 280.4C554.545 282.509 554.333 284.611 553.97 286.69Z" fill="black"/>
</g>
<path id="Vector 91" opacity="0.1" d="M515.679 135.72C515.679 135.72 496.679 170.21 522.679 187.81C548.679 205.41 551.189 203.65 551.189 203.65C551.189 203.65 550.829 207.87 551.189 208.93C551.549 209.99 558.189 212.44 558.189 212.44C558.189 212.44 566.279 225.44 577.889 231.1C589.499 236.76 591.619 250.1 591.619 250.1C591.619 250.1 591.619 254.68 597.619 258.9C603.619 263.12 608.239 275.44 608.239 275.44V286.71C608.239 288.47 610.35 293.71 605.78 294.27C601.21 294.83 605.069 305.36 605.069 305.36C605.069 305.36 600.149 311.36 601.199 314.16C602.249 316.96 599.09 322.6 599.09 322.6C599.09 322.6 595.219 328.23 595.569 329.29C595.919 330.35 591.35 334.22 592.4 336.68C593.45 339.14 587.129 342.31 588.179 345.13C589.229 347.95 583.679 349.35 583.679 349.35L568.47 384.55C568.47 384.55 600.469 391.55 608.729 409.18L649.069 335.27C649.069 335.27 671.589 280.02 672.299 276.5C673.009 272.98 667.369 260.31 667.369 260.31L639.919 210.31L598.739 152.24C598.739 152.24 566.009 82.58 515.679 135.72Z" fill="black"/>
<path id="Vector 92" opacity="0.1" d="M556.31 150.27C556.31 150.27 506.87 167.62 532.91 185.22C558.95 202.82 561.42 201.05 561.42 201.05C561.42 201.05 561.07 205.28 561.42 206.33C561.77 207.38 568.42 209.85 568.42 209.85C568.42 209.85 576.52 222.85 588.13 228.51C599.74 234.17 601.86 247.51 601.86 247.51C601.86 247.51 601.86 252.09 607.86 256.31C613.86 260.53 618.42 272.85 618.42 272.85V284.11C618.42 285.87 620.53 291.11 615.95 291.68C611.37 292.25 615.25 302.77 615.25 302.77C615.25 302.77 610.32 308.77 611.38 311.56C612.44 314.35 609.27 320.01 609.27 320.01C609.27 320.01 605.4 325.64 605.75 326.7C606.1 327.76 601.52 331.63 602.58 334.09C603.64 336.55 597.3 339.72 598.36 342.54C599.42 345.36 593.85 346.76 593.85 346.76L578.65 381.95C578.65 381.95 605.01 383.31 613.33 400.95L659.24 332.72C659.24 332.72 681.77 277.47 682.47 273.95C683.17 270.43 677.56 257.72 677.56 257.72L650.11 207.72L587.49 171.6C587.49 171.6 606.64 97.12 556.31 150.27Z" fill="black"/>
<path id="Vector 93" d="M518.499 135.72C518.499 135.72 499.499 170.21 525.499 187.81C551.499 205.41 554.009 203.65 554.009 203.65C554.009 203.65 553.659 207.87 554.009 208.93C554.359 209.99 561.009 212.44 561.009 212.44C561.009 212.44 569.11 225.44 580.72 231.1C592.33 236.76 594.449 250.1 594.449 250.1C594.449 250.1 594.449 254.68 600.449 258.9C606.449 263.12 611.059 275.44 611.059 275.44V286.71C611.059 288.47 613.17 293.71 608.59 294.27C604.01 294.83 607.889 305.36 607.889 305.36C607.889 305.36 602.96 311.36 604.02 314.16C605.08 316.96 601.91 322.6 601.91 322.6C601.91 322.6 598.039 328.23 598.389 329.29C598.739 330.35 594.16 334.22 595.22 336.68C596.28 339.14 589.939 342.31 590.999 345.13C592.059 347.95 586.489 349.35 586.489 349.35L571.29 384.55C571.29 384.55 603.23 391.55 611.54 409.18L651.879 335.27C651.879 335.27 674.409 280.02 675.109 276.5C675.809 272.98 670.179 260.31 670.179 260.31L642.729 210.31L601.559 152.26C601.559 152.26 568.819 82.58 518.499 135.72Z" fill="#6C63FF"/>
<g id="Group 2" opacity="0.1">
<path id="Vector 94" opacity="0.1" d="M310.63 153.04C310.26 148.669 309.319 144.366 307.83 140.24C306.38 136.24 304.4 132.3 303.93 128.05C303.93 127.92 303.93 127.8 303.93 127.67C303.825 128.734 303.825 129.806 303.93 130.87C304.4 135.12 306.38 139.03 307.83 143.06C309.319 147.182 310.26 151.483 310.63 155.85C310.77 157.49 310.83 159.15 310.85 160.85C310.88 158.2 310.85 155.61 310.63 153.04Z" fill="black"/>
<path id="Vector 95" opacity="0.1" d="M345.05 196.86C342.9 201.58 336.369 202.33 331.369 200.94C327.101 199.717 323.184 197.498 319.94 194.466C316.696 191.434 314.219 187.676 312.71 183.5C311.32 179.203 310.644 174.706 310.71 170.19C310.65 175.7 310.86 181.14 312.71 186.31C314.218 190.487 316.695 194.247 319.939 197.281C323.183 200.314 327.1 202.535 331.369 203.76C336.369 205.14 342.9 204.4 345.05 199.67C345.96 197.67 345.87 195.35 345.83 193.07C345.812 194.371 345.547 195.657 345.05 196.86Z" fill="black"/>
<path id="Vector 96" opacity="0.1" d="M442.209 131.12C441.779 134.32 440.509 137.92 437.459 138.99C435.681 139.487 433.783 139.309 432.129 138.49C427.129 136.31 422.679 131.05 417.339 132.32C412.979 133.32 410.889 138.25 409.739 142.59C408.905 145.332 408.543 148.196 408.669 151.06C408.86 149.146 409.218 147.252 409.739 145.4C410.889 141.07 412.979 136.17 417.339 135.13C422.679 133.87 427.089 139.13 432.129 141.3C433.781 142.126 435.681 142.307 437.459 141.81C440.509 140.74 441.779 137.14 442.209 133.93C442.484 131.886 442.584 129.821 442.509 127.76C442.459 128.88 442.359 130.01 442.209 131.12Z" fill="black"/>
<path id="Vector 97" opacity="0.1" d="M414.659 171.86C411.659 174.03 407.589 171.72 404.299 169.99C400.779 168.14 396.299 166.99 392.949 169.12C391.799 169.84 390.869 170.88 389.749 171.65C387.444 173.076 384.71 173.642 382.029 173.25C375.659 172.6 373.28 168.57 368.43 165.45C364.87 163.16 357.429 162.18 355.309 166.88C354.8 168.264 354.66 169.755 354.9 171.21C354.966 170.69 355.103 170.182 355.309 169.7C357.439 164.99 364.87 165.97 368.43 168.27C373.28 171.39 375.659 175.42 382.029 176.07C384.711 176.454 387.444 175.884 389.749 174.46C390.869 173.7 391.799 172.66 392.949 171.94C396.329 169.84 400.779 170.94 404.299 172.81C407.589 174.53 411.639 176.81 414.659 174.67C416.419 173.41 416.839 171.17 416.449 168.96C416.244 170.119 415.603 171.157 414.659 171.86Z" fill="black"/>
<path id="Vector 98" opacity="0.1" d="M354.64 176.72C353.27 179.86 349.059 180.72 347.119 183.55C345.669 185.65 345.789 188.27 345.839 190.9C345.821 189.298 346.265 187.725 347.119 186.37C349.059 183.54 353.27 182.67 354.64 179.53C355.119 178.164 355.25 176.7 355.02 175.27C354.958 175.768 354.831 176.256 354.64 176.72Z" fill="black"/>
</g>
</g>
</g>
</svg>
